<svg width="174" height="116" viewBox="0 0 174 116" fill="none" xmlns="http://www.w3.org/2000/svg">
<rect x="52" y="114" width="18" height="2" rx="1" fill="black"/>
<rect x="20" y="114" width="18" height="2" rx="1" fill="black"/>
<rect x="58" y="86" width="6" height="28" fill="black"/>
<rect x="26" y="86" width="6" height="28" fill="black"/>
<path d="M61 50.5C55.5 50.5 53.5 50 53.5 50L66 78L77 50.5C77 50.5 74.5 46.5 71 48C67.5 49.5 66.5 50.5 61 50.5Z" stroke="black"/>
<path d="M37.7021 48.1791C43.7872 48.1791 46 47.6187 46 47.6187L32.1702 79L20 48.1791C20 48.1791 22.766 43.6961 26.6383 45.3772C30.5106 47.0583 31.617 48.1791 37.7021 48.1791Z" stroke="black"/>
<path d="M56.624 30.84V32.856C53.68 32.856 51.824 33.24 51.056 34.008L65.744 74.232L79.856 34.584C79.216 33.432 77.232 32.856 73.904 32.856V30.84H89.648V32.856C86.128 32.856 84.112 33.528 83.6 34.872L64.976 87H57.008L45.008 53.496L33.104 87H25.136L6.512 34.872C6.064 33.528 4.016 32.856 0.368 32.856V30.84H24.752V32.856C21.808 32.856 19.952 33.24 19.184 34.008L33.872 74.136L43.088 48.12L38.384 34.872C37.936 33.528 35.888 32.856 32.24 32.856V30.84H56.624Z" fill="black"/>
<path d="M79.152 76V74.992C80.88 74.992 81.888 74.672 82.176 74.032V57.76C80.512 57.632 79.504 57.568 79.152 57.568V56.464C79.76 56.464 81.232 56.128 83.568 55.456C85.904 54.752 87.44 54.4 88.176 54.4V74.032C88.464 74.672 89.472 74.992 91.2 74.992V76H79.152ZM85.056 51.328C84.288 51.328 83.504 51.056 82.704 50.512C81.936 49.936 81.552 49.264 81.552 48.496C81.552 47.824 81.904 47.2 82.608 46.624C83.344 46.048 84.112 45.76 84.912 45.76C85.68 45.76 86.448 46.048 87.216 46.624C88.016 47.168 88.416 47.84 88.416 48.64C88.416 49.312 88.048 49.936 87.312 50.512C86.608 51.056 85.856 51.328 85.056 51.328ZM93.027 76V74.992C94.755 74.992 95.763 74.672 96.051 74.032V57.76C94.323 57.632 93.315 57.568 93.027 57.568V56.464C93.635 56.464 95.107 56.128 97.443 55.456C99.779 54.752 101.315 54.4 102.051 54.4V56.416C103.651 55.072 105.411 54.4 107.331 54.4C110.403 54.4 112.787 54.976 114.483 56.128C116.179 57.248 117.027 58.944 117.027 61.216V74.032C117.315 74.672 118.323 74.992 120.051 74.992V76H108.003V74.992C109.731 74.992 110.739 74.672 111.027 74.032V60.88C111.027 59.44 110.691 58.272 110.019 57.376C109.379 56.48 108.387 56.032 107.043 56.032C105.059 56.032 103.395 56.672 102.051 57.952V74.032C102.339 74.672 103.347 74.992 105.075 74.992V76H93.027ZM128.056 64.432C128.12 67.216 128.744 69.616 129.928 71.632C131.144 73.648 132.68 74.656 134.536 74.656C137.32 74.656 139.56 73.6 141.256 71.488L142.408 72.064C141.48 73.6 140.264 74.72 138.76 75.424C137.288 76.128 135.336 76.48 132.904 76.48C131.656 76.48 130.44 76.304 129.256 75.952C128.072 75.568 126.888 74.96 125.704 74.128C124.552 73.264 123.608 72 122.872 70.336C122.168 68.672 121.816 66.688 121.816 64.384C121.816 61.6 122.792 59.248 124.744 57.328C126.728 55.376 129.288 54.4 132.424 54.4C135.848 54.4 138.504 55.376 140.392 57.328C142.28 59.248 143.224 61.616 143.224 64.432H128.056ZM128.104 62.944H136.84C136.648 60.672 136.248 58.928 135.64 57.712C135.064 56.464 134.12 55.84 132.808 55.84C131.656 55.84 130.616 56.432 129.688 57.616C128.792 58.768 128.264 60.544 128.104 62.944ZM154.263 74.56C156.439 74.56 157.527 73.568 157.527 71.584C157.527 71.04 157.143 70.512 156.375 70C155.607 69.456 154.679 68.928 153.591 68.416C152.503 67.872 151.415 67.264 150.327 66.592C149.239 65.92 148.311 65.04 147.543 63.952C146.775 62.832 146.391 61.584 146.391 60.208C146.391 58.416 147.063 57.008 148.407 55.984C149.783 54.928 151.415 54.4 153.303 54.4C154.391 54.4 155.511 54.64 156.663 55.12C157.815 55.6 158.471 55.84 158.631 55.84C159.015 55.84 159.207 55.52 159.207 54.88H160.311L160.791 61.888H159.735C159.415 60.544 158.583 59.232 157.239 57.952C155.927 56.672 154.663 56.032 153.447 56.032C151.175 56.032 150.039 56.864 150.039 58.528C150.039 59.104 150.663 59.776 151.911 60.544C153.159 61.28 154.519 62 155.991 62.704C157.463 63.408 158.823 64.416 160.071 65.728C161.319 67.04 161.943 68.48 161.943 70.048C161.943 72.032 161.191 73.6 159.687 74.752C158.183 75.904 156.247 76.48 153.879 76.48C152.727 76.48 151.559 76.24 150.375 75.76C149.191 75.28 148.535 75.04 148.407 75.04C148.023 75.04 147.831 75.36 147.831 76H146.679L146.199 68.656H147.255C147.575 69.936 148.535 71.248 150.135 72.592C151.767 73.904 153.143 74.56 154.263 74.56Z" fill="black"/>
<path d="M82.16 85.3V88.2H83.88V88.8H82.16V95.16C82.16 95.5733 82.2333 95.8933 82.38 96.12C82.5267 96.3333 82.8 96.44 83.2 96.44C83.44 96.44 83.68 96.3267 83.92 96.1C84.1733 95.86 84.3467 95.5333 84.44 95.12L84.92 95.36C84.64 96.5867 83.84 97.2 82.52 97.2C81.48 97.2 80.72 96.9667 80.24 96.5C79.7733 96.02 79.54 95.24 79.54 94.16V88.8H78.14V88.2C78.9267 88.2 79.6133 87.9067 80.2 87.32C80.7867 86.72 81.08 86.0467 81.08 85.3H82.16ZM87.6703 89.68C87.977 89.68 88.1303 89.9533 88.1303 90.5C88.1303 90.7267 88.017 90.9 87.7903 91.02C87.5636 91.14 87.3236 91.2 87.0703 91.2C86.8036 91.2 86.5636 91.1067 86.3503 90.92C86.1503 90.7333 86.0503 90.4933 86.0503 90.2C86.0503 89.52 86.3836 88.9867 87.0503 88.6C87.7303 88.2 88.6103 88 89.6903 88C90.957 88 91.9436 88.32 92.6503 88.96C93.357 89.5867 93.7103 90.3867 93.7103 91.36V95.32C93.7103 95.7467 93.777 96.06 93.9103 96.26C94.057 96.46 94.2303 96.56 94.4303 96.56C94.6036 96.56 94.757 96.5133 94.8903 96.42C95.037 96.3267 95.1103 96.2133 95.1103 96.08H95.4703C95.4703 96.8 94.737 97.16 93.2703 97.16C92.5903 97.16 92.0636 96.92 91.6903 96.44C90.8903 96.9467 89.9636 97.2 88.9103 97.2C86.6836 97.2 85.5703 96.3867 85.5703 94.76C85.5703 94.4267 85.6836 94.1267 85.9103 93.86C86.1503 93.5933 86.5103 93.3667 86.9903 93.18C87.4703 92.9933 87.897 92.8467 88.2703 92.74C88.657 92.6333 89.1836 92.5133 89.8503 92.38C90.517 92.2333 90.9703 92.1267 91.2103 92.06C91.2103 90.8067 91.1036 89.94 90.8903 89.46C90.6903 88.9667 90.2236 88.72 89.4903 88.72C89.0503 88.72 88.6503 88.8133 88.2903 89C87.9436 89.1733 87.737 89.4 87.6703 89.68ZM91.4103 95.96C91.277 95.6 91.2103 95.2 91.2103 94.76V92.5C90.077 92.8467 89.3303 93.1333 88.9703 93.36C88.4103 93.7333 88.1303 94.2133 88.1303 94.8C88.1303 95.4133 88.257 95.8533 88.5103 96.12C88.777 96.3867 89.077 96.52 89.4103 96.52C89.997 96.52 90.6636 96.3333 91.4103 95.96ZM99.2489 96.4C100.156 96.4 100.609 95.9867 100.609 95.16C100.609 94.9333 100.449 94.7133 100.129 94.5C99.8089 94.2733 99.4222 94.0533 98.9689 93.84C98.5156 93.6133 98.0622 93.36 97.6089 93.08C97.1556 92.8 96.7689 92.4333 96.4489 91.98C96.1289 91.5133 95.9689 90.9933 95.9689 90.42C95.9689 89.6733 96.2489 89.0867 96.8089 88.66C97.3822 88.22 98.0622 88 98.8489 88C99.3022 88 99.7689 88.1 100.249 88.3C100.729 88.5 101.002 88.6 101.069 88.6C101.229 88.6 101.309 88.4667 101.309 88.2H101.769L101.969 91.12H101.529C101.396 90.56 101.049 90.0133 100.489 89.48C99.9422 88.9467 99.4156 88.68 98.9089 88.68C97.9622 88.68 97.4889 89.0267 97.4889 89.72C97.4889 89.96 97.7489 90.24 98.2689 90.56C98.7889 90.8667 99.3556 91.1667 99.9689 91.46C100.582 91.7533 101.149 92.1733 101.669 92.72C102.189 93.2667 102.449 93.8667 102.449 94.52C102.449 95.3467 102.136 96 101.509 96.48C100.882 96.96 100.076 97.2 99.0889 97.2C98.6089 97.2 98.1222 97.1 97.6289 96.9C97.1356 96.7 96.8622 96.6 96.8089 96.6C96.6489 96.6 96.5689 96.7333 96.5689 97H96.0889L95.8889 93.94H96.3289C96.4622 94.4733 96.8622 95.02 97.5289 95.58C98.2089 96.1267 98.7822 96.4 99.2489 96.4ZM107.238 85.3V88.2H108.958V88.8H107.238V95.16C107.238 95.5733 107.311 95.8933 107.458 96.12C107.605 96.3333 107.878 96.44 108.278 96.44C108.518 96.44 108.758 96.3267 108.998 96.1C109.251 95.86 109.425 95.5333 109.518 95.12L109.998 95.36C109.718 96.5867 108.918 97.2 107.598 97.2C106.558 97.2 105.798 96.9667 105.318 96.5C104.851 96.02 104.618 95.24 104.618 94.16V88.8H103.218V88.2C104.005 88.2 104.691 87.9067 105.278 87.32C105.865 86.72 106.158 86.0467 106.158 85.3H107.238ZM113.29 92.18C113.317 93.34 113.577 94.34 114.07 95.18C114.577 96.02 115.217 96.44 115.99 96.44C117.15 96.44 118.084 96 118.79 95.12L119.27 95.36C118.884 96 118.377 96.4667 117.75 96.76C117.137 97.0533 116.324 97.2 115.31 97.2C114.79 97.2 114.284 97.1267 113.79 96.98C113.297 96.82 112.804 96.5667 112.31 96.22C111.83 95.86 111.437 95.3333 111.13 94.64C110.837 93.9467 110.69 93.12 110.69 92.16C110.69 91 111.097 90.02 111.91 89.22C112.737 88.4067 113.804 88 115.11 88C116.537 88 117.644 88.4067 118.43 89.22C119.217 90.02 119.61 91.0067 119.61 92.18H113.29ZM113.31 91.56H116.95C116.87 90.6133 116.704 89.8867 116.45 89.38C116.21 88.86 115.817 88.6 115.27 88.6C114.79 88.6 114.357 88.8467 113.97 89.34C113.597 89.82 113.377 90.56 113.31 91.56ZM128.135 92.04C128.135 93.6133 128.341 94.7667 128.755 95.5C129.181 96.2333 129.828 96.6 130.695 96.6C131.295 96.6 131.755 96.2867 132.075 95.66C132.395 95.02 132.555 94.18 132.555 93.14C132.555 91.5133 132.361 90.3533 131.975 89.66C131.601 88.9667 130.928 88.62 129.955 88.62C129.381 88.62 128.935 88.9533 128.615 89.62C128.295 90.2867 128.135 91.0933 128.135 92.04ZM130.435 97.2C128.928 97.2 127.728 96.76 126.835 95.88C125.955 95 125.515 93.8533 125.515 92.44C125.515 91.1733 125.915 90.12 126.715 89.28C127.528 88.4267 128.721 88 130.295 88C131.881 88 133.088 88.42 133.915 89.26C134.755 90.1 135.175 91.24 135.175 92.68C135.175 93.96 134.775 95.0333 133.975 95.9C133.175 96.7667 131.995 97.2 130.435 97.2ZM142.795 85.58C142.795 86.18 142.529 86.48 141.995 86.48C141.675 86.48 141.449 86.4067 141.315 86.26C141.182 86.1 141.115 85.9267 141.115 85.74C141.129 85.5533 141.095 85.3867 141.015 85.24C140.949 85.08 140.809 85 140.595 85C140.115 85 139.875 85.7467 139.875 87.24V88.2H141.415V88.8H139.875V96.18C139.995 96.4467 140.415 96.58 141.135 96.58V97H136.115V96.58C136.835 96.58 137.255 96.4467 137.375 96.18V88.8H136.375V88.2H137.375V87.52C137.375 86.4267 137.649 85.6333 138.195 85.14C138.755 84.6467 139.489 84.4 140.395 84.4C141.182 84.4 141.775 84.52 142.175 84.76C142.589 85 142.795 85.2733 142.795 85.58ZM146.796 97V96.58C147.516 96.58 147.936 96.4467 148.056 96.18V85.8C147.336 85.7467 146.916 85.72 146.796 85.72V85.26C147.049 85.26 147.662 85.12 148.636 84.84C149.609 84.5467 150.249 84.4 150.556 84.4V96.18C150.676 96.4467 151.096 96.58 151.816 96.58V97H146.796ZM152.582 97V96.58C153.302 96.58 153.722 96.4467 153.842 96.18V89.4C153.148 89.3467 152.728 89.32 152.582 89.32V88.86C152.835 88.86 153.448 88.72 154.422 88.44C155.395 88.1467 156.035 88 156.342 88V96.18C156.462 96.4467 156.882 96.58 157.602 96.58V97H152.582ZM155.042 86.72C154.722 86.72 154.395 86.6067 154.062 86.38C153.742 86.14 153.582 85.86 153.582 85.54C153.582 85.26 153.728 85 154.022 84.76C154.328 84.52 154.648 84.4 154.982 84.4C155.302 84.4 155.622 84.52 155.942 84.76C156.275 84.9867 156.442 85.2667 156.442 85.6C156.442 85.88 156.288 86.14 155.982 86.38C155.688 86.6067 155.375 86.72 155.042 86.72ZM164.983 85.58C164.983 86.18 164.716 86.48 164.183 86.48C163.863 86.48 163.636 86.4067 163.503 86.26C163.369 86.1 163.303 85.9267 163.303 85.74C163.316 85.5533 163.283 85.3867 163.203 85.24C163.136 85.08 162.996 85 162.783 85C162.303 85 162.063 85.7467 162.063 87.24V88.2H163.603V88.8H162.063V96.18C162.183 96.4467 162.603 96.58 163.323 96.58V97H158.303V96.58C159.023 96.58 159.443 96.4467 159.563 96.18V88.8H158.563V88.2H159.563V87.52C159.563 86.4267 159.836 85.6333 160.383 85.14C160.943 84.6467 161.676 84.4 162.583 84.4C163.369 84.4 163.963 84.52 164.363 84.76C164.776 85 164.983 85.2733 164.983 85.58ZM167.021 92.18C167.047 93.34 167.307 94.34 167.801 95.18C168.307 96.02 168.947 96.44 169.721 96.44C170.881 96.44 171.814 96 172.521 95.12L173.001 95.36C172.614 96 172.107 96.4667 171.481 96.76C170.867 97.0533 170.054 97.2 169.041 97.2C168.521 97.2 168.014 97.1267 167.521 96.98C167.027 96.82 166.534 96.5667 166.041 96.22C165.561 95.86 165.167 95.3333 164.861 94.64C164.567 93.9467 164.421 93.12 164.421 92.16C164.421 91 164.827 90.02 165.641 89.22C166.467 88.4067 167.534 88 168.841 88C170.267 88 171.374 88.4067 172.161 89.22C172.947 90.02 173.341 91.0067 173.341 92.18H167.021ZM167.041 91.56H170.681C170.601 90.6133 170.434 89.8867 170.181 89.38C169.941 88.86 169.547 88.6 169.001 88.6C168.521 88.6 168.087 88.8467 167.701 89.34C167.327 89.82 167.107 90.56 167.041 91.56Z" fill="black"/>
</svg>
